<svg width="205" height="44" viewBox="0 0 205 44" fill="none" xmlns="http://www.w3.org/2000/svg">
<path d="M7.74578 10.4V16.08H16.9058V21.36H7.74578V27.52H18.1058V33H0.905781V4.92H18.1058V10.4H7.74578ZM21.1864 21.88C21.1864 19.6667 21.6397 17.6933 22.5464 15.96C23.4797 14.2267 24.7197 12.88 26.2664 11.92C27.8397 10.9333 29.5464 10.44 31.3864 10.44C32.7997 10.44 34.0664 10.6933 35.1864 11.2C36.3064 11.68 37.2131 12.36 37.9064 13.24V10.68H44.7464V43.64H37.9064V30.2C37.1331 31.1333 36.1864 31.88 35.0664 32.44C33.9731 33 32.7197 33.28 31.3064 33.28C29.4931 33.28 27.8131 32.8 26.2664 31.84C24.7197 30.88 23.4797 29.5333 22.5464 27.8C21.6397 26.0667 21.1864 24.0933 21.1864 21.88ZM37.9064 21.84C37.9064 20.64 37.6664 19.64 37.1864 18.84C36.7331 18.0133 36.1331 17.4 35.3864 17C34.6397 16.5733 33.8531 16.36 33.0264 16.36C32.2264 16.36 31.4531 16.5733 30.7064 17C29.9597 17.4 29.3464 18.0133 28.8664 18.84C28.3864 19.6667 28.1464 20.68 28.1464 21.88C28.1464 23.08 28.3864 24.0933 28.8664 24.92C29.3464 25.72 29.9597 26.3333 30.7064 26.76C31.4531 27.16 32.2264 27.36 33.0264 27.36C33.8264 27.36 34.5997 27.16 35.3464 26.76C36.1197 26.3333 36.7331 25.7067 37.1864 24.88C37.6664 24.0533 37.9064 23.04 37.9064 21.84ZM71.7348 10.68V33H64.8948V29.96C64.2015 30.9467 63.2548 31.7467 62.0548 32.36C60.8815 32.9467 59.5748 33.24 58.1348 33.24C56.4282 33.24 54.9215 32.8667 53.6148 32.12C52.3082 31.3467 51.2948 30.24 50.5748 28.8C49.8548 27.36 49.4948 25.6667 49.4948 23.72V10.68H56.2948V22.8C56.2948 24.2933 56.6815 25.4533 57.4548 26.28C58.2282 27.1067 59.2682 27.52 60.5748 27.52C61.9082 27.52 62.9615 27.1067 63.7348 26.28C64.5082 25.4533 64.8948 24.2933 64.8948 22.8V10.68H71.7348ZM80.088 8.36C78.888 8.36 77.9013 8.01333 77.128 7.32C76.3813 6.6 76.008 5.72 76.008 4.68C76.008 3.61333 76.3813 2.73333 77.128 2.04C77.9013 1.32 78.888 0.959998 80.088 0.959998C81.2613 0.959998 82.2213 1.32 82.968 2.04C83.7413 2.73333 84.128 3.61333 84.128 4.68C84.128 5.72 83.7413 6.6 82.968 7.32C82.2213 8.01333 81.2613 8.36 80.088 8.36ZM83.488 10.68V33H76.648V10.68H83.488Z" fill="#DFDFDF"/>
<path d="M95.2848 13.84C95.9248 12.8 96.8448 11.96 98.0448 11.32C99.2448 10.68 100.618 10.36 102.165 10.36C104.005 10.36 105.672 10.8267 107.165 11.76C108.658 12.6933 109.832 14.0267 110.685 15.76C111.565 17.4933 112.005 19.5067 112.005 21.8C112.005 24.0933 111.565 26.12 110.685 27.88C109.832 29.6133 108.658 30.96 107.165 31.92C105.672 32.8533 104.005 33.32 102.165 33.32C100.592 33.32 99.2182 33.0133 98.0448 32.4C96.8715 31.76 95.9515 30.92 95.2848 29.88V33H88.4448V3.4H95.2848V13.84ZM105.045 21.8C105.045 20.0933 104.565 18.76 103.605 17.8C102.672 16.8133 101.512 16.32 100.125 16.32C98.7648 16.32 97.6048 16.8133 96.6448 17.8C95.7115 18.7867 95.2448 20.1333 95.2448 21.84C95.2448 23.5467 95.7115 24.8933 96.6448 25.88C97.6048 26.8667 98.7648 27.36 100.125 27.36C101.485 27.36 102.645 26.8667 103.605 25.88C104.565 24.8667 105.045 23.5067 105.045 21.8ZM114.233 21.8C114.233 19.5067 114.66 17.4933 115.513 15.76C116.393 14.0267 117.58 12.6933 119.073 11.76C120.567 10.8267 122.233 10.36 124.073 10.36C125.647 10.36 127.02 10.68 128.193 11.32C129.393 11.96 130.313 12.8 130.953 13.84V10.68H137.793V33H130.953V29.84C130.287 30.88 129.353 31.72 128.153 32.36C126.98 33 125.607 33.32 124.033 33.32C122.22 33.32 120.567 32.8533 119.073 31.92C117.58 30.96 116.393 29.6133 115.513 27.88C114.66 26.12 114.233 24.0933 114.233 21.8ZM130.953 21.84C130.953 20.1333 130.473 18.7867 129.513 17.8C128.58 16.8133 127.433 16.32 126.073 16.32C124.713 16.32 123.553 16.8133 122.593 17.8C121.66 18.76 121.193 20.0933 121.193 21.8C121.193 23.5067 121.66 24.8667 122.593 25.88C123.553 26.8667 124.713 27.36 126.073 27.36C127.433 27.36 128.58 26.8667 129.513 25.88C130.473 24.8933 130.953 23.5467 130.953 21.84ZM149.582 3.4V33H142.742V3.4H149.582ZM161.379 3.4V33H154.539V3.4H161.379ZM176.495 33.32C174.309 33.32 172.335 32.8533 170.575 31.92C168.842 30.9867 167.469 29.6533 166.455 27.92C165.469 26.1867 164.975 24.16 164.975 21.84C164.975 19.5467 165.482 17.5333 166.495 15.8C167.509 14.04 168.895 12.6933 170.655 11.76C172.415 10.8267 174.389 10.36 176.575 10.36C178.762 10.36 180.735 10.8267 182.495 11.76C184.255 12.6933 185.642 14.04 186.655 15.8C187.669 17.5333 188.175 19.5467 188.175 21.84C188.175 24.1333 187.655 26.16 186.615 27.92C185.602 29.6533 184.202 30.9867 182.415 31.92C180.655 32.8533 178.682 33.32 176.495 33.32ZM176.495 27.4C177.802 27.4 178.909 26.92 179.815 25.96C180.749 25 181.215 23.6267 181.215 21.84C181.215 20.0533 180.762 18.68 179.855 17.72C178.975 16.76 177.882 16.28 176.575 16.28C175.242 16.28 174.135 16.76 173.255 17.72C172.375 18.6533 171.935 20.0267 171.935 21.84C171.935 23.6267 172.362 25 173.215 25.96C174.095 26.92 175.189 27.4 176.495 27.4ZM204.244 27.2V33H200.764C198.284 33 196.351 32.4 194.964 31.2C193.578 29.9733 192.884 27.9867 192.884 25.24V16.36H190.164V10.68H192.884V5.24H199.724V10.68H204.204V16.36H199.724V25.32C199.724 25.9867 199.884 26.4667 200.204 26.76C200.524 27.0533 201.058 27.2 201.804 27.2H204.244Z" fill="#FF7F8B"/>
</svg>
